<svg width="32" height="32" viewBox="0 0 32 32" fill="none" xmlns="http://www.w3.org/2000/svg">
<path d="M31.3398 14.9602L15.1063 0.870703C14.9816 0.763281 14.8227 0.703125 14.6551 0.703125H10.8523C10.5344 0.703125 10.3883 1.09844 10.6289 1.30469L25.6766 14.3672H0.53125C0.342187 14.3672 0.1875 14.5219 0.1875 14.7109V17.2891C0.1875 17.4781 0.342187 17.6328 0.53125 17.6328H25.6723L10.6246 30.6953C10.384 30.9059 10.5301 31.2969 10.848 31.2969H14.7797C14.8613 31.2969 14.943 31.2668 15.0031 31.2109L31.3398 17.0398C31.4886 16.9105 31.6079 16.7507 31.6896 16.5713C31.7713 16.392 31.8136 16.1971 31.8136 16C31.8136 15.8029 31.7713 15.608 31.6896 15.4287C31.6079 15.2493 31.4886 15.0895 31.3398 14.9602Z" fill="white"/>
</svg>
